<?xml version="1.0" encoding="UTF-8" standalone="no"?><svg xmlns="http://www.w3.org/2000/svg" xmlns:xlink="http://www.w3.org/1999/xlink" contentStyleType="text/css" height="430px" preserveAspectRatio="none" style="width:403px;height:430px;background:#FFFFFF;" version="1.1" viewBox="0 0 403 430" width="403px" zoomAndPan="magnify"><defs/><g><g id="elem_e1"><ellipse cx="246.495" cy="43.699" fill="#F1F1F1" rx="83.995" ry="19.199" style="stroke:#181818;stroke-width:0.5;"/><text fill="#000000" font-family="sans-serif" font-size="14" lengthAdjust="spacing" textLength="128" x="182.2335" y="46.6356">Gérer ses artisans</text></g><g id="elem_e2"><ellipse cx="239.2915" cy="161.6583" fill="#F1F1F1" rx="88.7915" ry="20.1583" style="stroke:#181818;stroke-width:0.5;"/><text fill="#000000" font-family="sans-serif" font-size="14" lengthAdjust="spacing" textLength="139" x="169.7915" y="164.505">Gérer ses chantiers</text></g><g id="elem_e3"><ellipse cx="238.4172" cy="275.6834" fill="#F1F1F1" rx="158.9172" ry="34.1834" style="stroke:#181818;stroke-width:0.5;"/><text fill="#000000" font-family="sans-serif" font-size="14" lengthAdjust="spacing" textLength="289" x="93.9172" y="278.5301">Gérer les affectations artisans/chantiers</text></g><g id="elem_e4"><ellipse cx="132.4187" cy="397.1837" fill="#F1F1F1" rx="126.4187" ry="27.6837" style="stroke:#181818;stroke-width:0.5;"/><text fill="#000000" font-family="sans-serif" font-size="14" lengthAdjust="spacing" textLength="221" x="21.9187" y="400.0304">Calculer la paye de ses artisans</text></g><!--MD5=[4206b647878100e6066f92523e03a5d6]
entity Entreprise--><g id="elem_Entreprise"><ellipse cx="89.5" cy="14" fill="#F1F1F1" rx="8" ry="8" style="stroke:#181818;stroke-width:0.5;"/><path d="M89.5,22 L89.5,49 M76.5,30 L102.5,30 M89.5,49 L76.5,64 M89.5,49 L102.5,64 " fill="none" style="stroke:#181818;stroke-width:0.5;"/><text fill="#000000" font-family="sans-serif" font-size="14" lengthAdjust="spacing" textLength="76" x="51.5" y="78.4951">Entreprise</text></g><!--MD5=[2f4aa5290a976b2f4dd1aafdbeed5e7a]
link e1 to e2--><!--MD5=[b6c9ee07cd6ea7414e40cafb0266874b]
link e2 to e3--><!--MD5=[71c2f54d4383f6faf0ca775551e9297a]
link e3 to e4--><!--MD5=[9e7d6b5373fbc2f9ef1279ae762801aa]
link Entreprise to e1--><g id="link_Entreprise_e1"><path d="M127.523,43.5 C137.418,43.5 147.312,43.5 157.206,43.5 " fill="none" id="Entreprise-to-e1" style="stroke:#181818;stroke-width:1.0;"/><polygon fill="#181818" points="162.38,43.5,153.38,39.5,157.38,43.5,153.38,47.5,162.38,43.5" style="stroke:#181818;stroke-width:1.0;"/></g><!--MD5=[e2a29682a5ae12b713de41f573aa53da]
link Entreprise to e2--><g id="link_Entreprise_e2"><path d="M127.739,74.072 C153.996,94.377 188.239,120.858 211.866,139.13 " fill="none" id="Entreprise-to-e2" style="stroke:#181818;stroke-width:1.0;"/><polygon fill="#181818" points="215.856,142.215,211.1828,133.5454,211.9005,139.1566,206.2893,139.8743,215.856,142.215" style="stroke:#181818;stroke-width:1.0;"/></g><!--MD5=[8c0dd6705080fd321954b8abb08abf4d]
link Entreprise to e3--><g id="link_Entreprise_e3"><path d="M95.8467,81.73 C102.055,110.694 113.563,150.959 133.5,181.5 C147.917,203.585 168.93,223.63 188.377,239.407 " fill="none" id="Entreprise-to-e3" style="stroke:#181818;stroke-width:1.0;"/><polygon fill="#181818" points="192.759,242.912,188.2292,234.1667,188.8544,239.7889,183.2322,240.4141,192.759,242.912" style="stroke:#181818;stroke-width:1.0;"/></g><!--MD5=[f1fd7946cb9b18404940846afc1905b5]
link Entreprise to e4--><g id="link_Entreprise_e4"><path d="M75.5587,81.719 C58.1296,134.136 33.7547,231.967 61.5,309.5 C69.1639,330.9164 84.6679,350.8358 99.238,366.1482 " fill="none" id="Entreprise-to-e4" style="stroke:#181818;stroke-width:1.0;"/><polygon fill="#181818" points="102.9168,369.94,99.5208,360.6952,99.4352,366.3514,93.779,366.2658,102.9168,369.94" style="stroke:#181818;stroke-width:1.0;"/></g><!--MD5=[c6b919e146a4a1e933f613301ee1f75e]
@startuml
usecase e1 as "Gérer ses artisans"
usecase e2 as "Gérer ses chantiers"
usecase e3 as "Gérer les affectations artisans/chantiers"
usecase e4 as "Calculer la paye de ses artisans"

actor Entreprise

'Pour aligner les 2 acteurs :
e1 -[hidden]-> e2
e2 -[hidden]-> e3
e3 -[hidden]-> e4

Entreprise -> e1
Entreprise -> e2
Entreprise -> e3
Entreprise -> e4
@enduml

@startuml
usecase e1 as "Gérer ses artisans"
usecase e2 as "Gérer ses chantiers"
usecase e3 as "Gérer les affectations artisans/chantiers"
usecase e4 as "Calculer la paye de ses artisans"

actor Entreprise

e1 -[hidden]-> e2
e2 -[hidden]-> e3
e3 -[hidden]-> e4

Entreprise -> e1
Entreprise -> e2
Entreprise -> e3
Entreprise -> e4
@enduml

PlantUML version 1.2022.2(Sat Mar 05 16:30:19 UTC 2022)
(GPL source distribution)
Java Runtime: Java(TM) SE Runtime Environment
JVM: Java HotSpot(TM) 64-Bit Server VM
Default Encoding: UTF-8
Language: en
Country: US
--></g></svg>